HIERARCHY
ROOT Hips
{
  OFFSET -32.5998 29.0326 120.673
  CHANNELS 6 Xposition Yposition Zposition Zrotation Xrotation Yrotation
  JOINT LeftUpLeg
  {
    OFFSET 8.64259 1.95398 -2.38835
    CHANNELS 3 Zrotation Xrotation Yrotation
    JOINT LeftLeg
    {
      OFFSET 43.7702 0 0
      CHANNELS 3 Zrotation Xrotation Yrotation
      JOINT LeftFoot
      {
        OFFSET 40.6238 0 0
        CHANNELS 3 Zrotation Xrotation Yrotation
        JOINT LeftToeBase
        {
          OFFSET 12.7242 0 0
          CHANNELS 3 Zrotation Xrotation Yrotation
          End Site
          {
            OFFSET 0 0 0
          }
        }
      }
    }
  }
  JOINT RightUpLeg
  {
    OFFSET -8.2249 1.95398 -2.59336
    CHANNELS 3 Zrotation Xrotation Yrotation
    JOINT RightLeg
    {
      OFFSET 43.5653 0 0
      CHANNELS 3 Zrotation Xrotation Yrotation
      JOINT RightFoot
      {
        OFFSET 40.6238 0 0
        CHANNELS 3 Zrotation Xrotation Yrotation
        JOINT RightToeBase
        {
          OFFSET 12.7242 0 0
          CHANNELS 3 Zrotation Xrotation Yrotation
          End Site
          {
            OFFSET 0 0 0
          }
        }
      }
    }
  }
  JOINT Spine
  {
    OFFSET 0.165834 0.87714 6.61349
    CHANNELS 3 Zrotation Xrotation Yrotation
    JOINT Spine1
    {
      OFFSET 7.38963 1.71661e-005 0
      CHANNELS 3 Zrotation Xrotation Yrotation
      JOINT Spine2
      {
        OFFSET 11.9445 1.14441e-005 0
        CHANNELS 3 Zrotation Xrotation Yrotation
        JOINT Spine3
        {
          OFFSET 14.7254 4.19617e-005 0
          CHANNELS 3 Zrotation Xrotation Yrotation
          JOINT Spine4
          {
            OFFSET 10.9679 0 0
            CHANNELS 3 Zrotation Xrotation Yrotation
            JOINT RightShoulder
            {
              OFFSET 2.46616 -1.6653 3.69651
              CHANNELS 3 Zrotation Xrotation Yrotation
              JOINT RightArm
              {
                OFFSET 13.0012 0 0
                CHANNELS 3 Zrotation Xrotation Yrotation
                JOINT RightForeArm
                {
                  OFFSET 28.7848 1.62311e-005 0
                  CHANNELS 3 Zrotation Xrotation Yrotation
                  JOINT RightHand
                  {
                    OFFSET 26.5688 1.62095e-005 0
                    CHANNELS 3 Zrotation Xrotation Yrotation
                    End Site
                    {
                      OFFSET 0 0 0
                    }
                  }
                }
              }
            }
            JOINT LeftShoulder
            {
              OFFSET 2.38034 -1.29275 -3.7523
              CHANNELS 3 Zrotation Xrotation Yrotation
              JOINT LeftArm
              {
                OFFSET 16.3182 6.07031e-005 0
                CHANNELS 3 Zrotation Xrotation Yrotation
                JOINT LeftForeArm
                {
                  OFFSET 27.0901 0 0
                  CHANNELS 3 Zrotation Xrotation Yrotation
                  JOINT LeftHand
                  {
                    OFFSET 24.5451 1.51738e-005 0
                    CHANNELS 3 Zrotation Xrotation Yrotation
                    End Site
                    {
                      OFFSET 0 0 0
                    }
                  }
                }
              }
            }
            JOINT Neck
            {
              OFFSET 5.0226 -0.0266342 0
              CHANNELS 3 Zrotation Xrotation Yrotation
              JOINT Head
              {
                OFFSET 6.69364 2.86102e-005 0
                CHANNELS 3 Zrotation Xrotation Yrotation
                End Site
                {
                  OFFSET 0 0 0
                }
              }
            }
          }
        }
      }
    }
  }
}
MOTION
Frames:	18
Frame Time:	0.0416667
9.90319 100.945 22.5072 -156.351 -82.7257 -157.214 -174.215 -3.717 88.1922 -12.7316 6.57363 -0.145412 71.6346 6.21076 -1.72386 15.5036 -10.8319 8.7865 172.039 -5.25947 89.4248 -13.0896 -0.876861 0.633719 70.4157 -6.02946 2.16813 22.9138 1.30655 4.49267 0.209188 7.64935 -90.1484 11.5756 0.346695 -0.33152 -0.0953236 0.331768 -0.346465 -22.6307 0.430304 -0.211997 -2.61804 0.430305 -0.211995 91.7253 -28.118 -103.969 43.4473 -22.2855 -7.90286 -14.0625 -16.2756 -25.6161 -9.5499 -0.059168 -4.68446 -88.6159 -52.693 81.3027 -20.5501 29.1455 -15.3653 6.96325 -3.57586 -11.4216 -0.229976 -0.0619349 -2.84019 6.67286 -0.873654 -1.24058 -7.55127 -0.653691 1.09371 
9.89195 100.96 22.4622 -154.503 -82.9869 -155.159 -174.222 -3.18619 88.3365 -12.986 6.39425 -0.086471 71.6993 6.17931 -1.77101 15.8529 -10.9252 9.27127 172.25 -5.07775 89.6685 -12.8759 -0.831323 0.680747 70.2511 -5.96565 2.28799 22.9597 1.32581 4.36575 0.229619 7.61798 -90.1789 11.6385 0.372912 -0.395413 -0.0324778 0.355142 -0.411451 -22.5678 0.474503 -0.265062 -2.55517 0.474511 -0.265057 91.696 -27.9707 -104.081 43.6524 -21.7815 -7.80688 -14.3409 -16.7803 -25.6739 -9.54007 -0.106691 -4.07919 -88.542 -52.7463 81.42 -20.3253 29.5595 -15.5938 6.65693 -4.11226 -11.2349 -0.87025 -0.0699387 -2.81881 6.92529 -0.857836 -1.04634 -7.83444 -0.668703 0.88669 
9.84971 100.955 22.483 -155.03 -82.9149 -155.654 -174.2 -3.27782 88.3922 -13.0286 6.34679 -0.0546235 71.7821 6.1963 -1.86934 15.3612 -10.9854 8.90568 172.205 -5.21836 89.6921 -12.798 -0.839694 0.731339 70.1817 -5.97147 2.2556 23.0073 1.33168 4.28004 0.210909 7.62408 -90.1845 11.6262 0.333112 -0.402246 -0.044811 0.315088 -0.416526 -22.58 0.438601 -0.283534 -2.56738 0.438602 -0.283542 91.6077 -27.8373 -104.311 43.7099 -21.9638 -7.78156 -14.1883 -16.5216 -25.6174 -9.76384 -0.0684431 -4.57533 -88.5156 -52.8461 81.476 -20.193 29.7249 -15.4311 6.7262 -4.02224 -11.5066 -0.389665 -0.0615903 -2.69862 6.91965 -0.793309 -0.891734 -7.86137 -0.63489 0.845989 
9.83544 100.969 22.5307 -155.574 -82.7613 -156.345 -174.227 -3.6341 88.2764 -12.729 6.1503 -0.0626914 71.6564 6.1506 -1.9536 15.4513 -10.7527 8.60651 172.116 -5.12615 89.5814 -13.1142 -0.934775 0.692788 70.1586 -5.92502 1.87982 23.0494 1.2636 4.44851 0.218788 7.64141 -90.1708 11.5915 0.355272 -0.377028 -0.0794096 0.338338 -0.392308 -22.6147 0.452169 -0.252821 -2.60208 0.452155 -0.252836 91.627 -27.9141 -104.243 43.4503 -22.4342 -7.92073 -13.9168 -16.2171 -25.4046 -9.35226 -0.0708892 -4.5179 -88.6599 -52.8622 81.2697 -20.0738 29.904 -15.5552 6.67991 -3.89625 -11.3877 -0.562531 -0.0684964 -2.9606 6.83504 -0.821368 -0.774339 -7.77737 -0.679747 0.687712 
9.79803 100.967 22.5308 -155.005 -82.7838 -155.692 -174.243 -3.52975 88.3326 -12.8496 6.21798 -0.00849565 71.7762 6.20638 -1.89057 15.497 -10.9092 8.90794 172.236 -5.39186 89.7154 -12.679 -0.962097 0.680545 70.1408 -6.0095 1.69414 22.8209 1.30373 4.6291 0.226042 7.63601 -90.175 11.6024 0.367726 -0.386791 -0.0685332 0.350347 -0.402601 -22.6039 0.466966 -0.258392 -2.59123 0.466969 -0.258395 91.6365 -27.9571 -104.209 43.5088 -22.028 -7.86382 -14.2901 -16.8404 -25.6296 -9.73321 -0.104023 -4.12975 -88.6267 -52.5993 81.2698 -20.6201 29.6937 -15.482 6.59624 -4.31473 -11.3783 -1.2635 -0.0823557 -3.52563 7.00265 -0.912539 -0.915007 -7.99972 -0.744033 0.757988 
9.79884 100.963 22.54 -155.704 -82.7848 -156.418 -174.258 -3.58299 88.3027 -12.8327 6.4024 0.0075896 71.6707 6.16179 -1.79965 15.6804 -11.0847 9.37122 172.149 -5.37554 89.6122 -12.7525 -0.598527 0.695309 70.1847 -5.89826 2.53958 23.0575 1.33512 4.1988 0.218826 7.63909 -90.1616 11.5962 0.359687 -0.359154 -0.0747727 0.343539 -0.374644 -22.6101 0.450995 -0.234452 -2.59747 0.451006 -0.234447 91.5372 -28.1196 -104.355 43.4324 -22.1049 -7.82559 -14.2303 -16.571 -25.6237 -9.32418 -0.0573291 -4.6656 -88.6336 -52.3049 81.2058 -20.8668 29.2208 -15.4916 6.98254 -3.34989 -11.2032 -0.158206 -0.0603593 -2.79392 6.89801 -0.903057 -1.06338 -7.80294 -0.707304 0.823591 
9.77131 100.981 22.5904 -155.659 -82.5934 -156.475 -174.123 -3.89782 88.3453 -12.6155 6.65134 -0.16785 71.5037 6.196 -1.59975 15.6543 -10.8169 8.90335 172.14 -5.79075 89.5097 -12.5784 -1.28654 0.6149 70.1308 -5.91134 1.8951 23.1142 1.28424 4.2864 0.235134 7.65957 -90.1425 11.5553 0.401136 -0.325255 -0.115685 0.386421 -0.3426 -22.6512 0.480335 -0.189667 -2.63855 0.480339 -0.189664 91.5621 -28.332 -104.228 43.1805 -22.2581 -8.00799 -14.1474 -16.6766 -25.4555 -9.07245 -0.0985001 -4.08918 -88.6773 -52.0298 81.0913 -21.1494 29.2965 -15.5503 6.88407 -3.53077 -11.0769 -0.504719 -0.0697395 -3.11235 7.00453 -1.02832 -1.57463 -7.96511 -0.749533 1.35804 
9.74478 100.978 22.5073 -154.69 -82.7924 -155.341 -174.199 -3.43223 88.4228 -12.9681 6.38896 -0.0162682 71.692 6.14679 -1.91035 15.738 -11.0444 9.35878 172.362 -5.46649 89.8228 -12.4683 -0.862055 0.575094 70.0706 -5.95815 2.04073 22.9306 1.34289 4.34769 0.237532 7.62861 -90.1793 11.6173 0.388561 -0.397521 -0.0536689 0.370691 -0.414245 -22.589 0.490069 -0.262365 -2.5764 0.490068 -0.262376 91.596 -28.0181 -104.27 43.5029 -22.1927 -7.77324 -14.6091 -17.6798 -25.77 -9.49526 -0.12213 -3.86042 -88.7397 -52.2871 81.0477 -21.0144 29.1869 -15.6014 6.93185 -3.20945 -10.8332 -0.282265 -0.0694917 -2.97056 6.88035 -0.96816 -1.08395 -7.9289 -0.772611 0.93258 
9.72967 100.957 22.4952 -153.197 -82.8577 -153.738 -174.121 -3.30653 88.5362 -12.8956 6.33043 -0.0685002 71.7381 6.22477 -1.67736 15.5532 -10.7873 8.75939 172.48 -5.25639 89.9668 -12.597 -0.725154 0.556123 70.1241 -5.93548 2.36941 22.8309 1.41862 4.23628 0.253078 7.6185 -90.166 11.6375 0.425671 -0.375021 -0.033416 0.408752 -0.393401 -22.5689 0.518694 -0.229758 -2.5563 0.518704 -0.229748 91.4562 -28.3527 -104.437 43.3851 -22.199 -7.81518 -14.3517 -17.0045 -25.531 -8.07225 -0.103596 -3.92191 -88.6022 -51.6952 81.1396 -21.4838 29.3283 -15.6162 6.83688 -3.46319 -10.8062 -0.627139 -0.0748771 -3.14406 6.8814 -1.09377 -1.80673 -7.84351 -0.767865 1.35591 
9.74384 100.981 22.5273 -155.035 -82.7738 -155.871 -174.204 -3.64852 88.2853 -12.6084 6.57756 -0.116439 71.3818 6.11166 -1.60328 15.8537 -10.6056 8.7411 172.183 -5.596 89.5454 -12.4988 -1.19948 0.620508 70.0954 -5.89509 1.94052 23.114 1.30917 4.2074 0.227822 7.63957 -90.1663 11.5953 0.375379 -0.370172 -0.0756644 0.358727 -0.386336 -22.611 0.469277 -0.24023 -2.59839 0.469273 -0.240245 91.5469 -28.026 -104.369 43.3498 -22.2836 -7.87776 -14.5613 -17.7973 -25.658 -9.34331 -0.198628 -2.84531 -88.7762 -52.3221 81.0006 -20.4002 30.7602 -15.616 6.01564 -5.44823 -11.3196 -0.713874 -0.0760347 -3.37427 6.34367 -1.05705 -1.50204 -6.80875 -0.803171 1.85353 
9.67438 100.973 22.437 -152.189 -83.0036 -152.637 -174.023 -2.99644 88.7005 -13.0761 6.36486 -0.134616 71.703 6.07192 -2.05718 15.9416 -11.0428 9.55016 172.572 -4.99513 90.1254 -12.5793 -0.727782 0.590908 69.9625 -5.90975 2.21276 22.8695 1.35983 4.37722 0.273901 7.58907 -90.1799 11.6965 0.460427 -0.406743 0.0255738 0.442086 -0.426625 -22.51 0.561381 -0.249558 -2.49736 0.561382 -0.249569 91.4771 -28.3508 -104.395 43.4533 -22.1466 -7.6295 -14.5357 -17.5304 -25.6387 -8.11835 -0.178474 -2.78146 -88.7179 -51.575 80.947 -21.5301 29.4551 -15.6081 6.58595 -4.12276 -10.396 -0.521347 -0.0662559 -2.87836 6.08869 -1.25955 -2.22197 -6.72563 -0.875592 2.20288 
9.67328 100.955 22.4549 -153.056 -82.8921 -153.667 -174.073 -3.2153 88.5437 -12.9587 6.34076 -0.137095 71.6902 6.1569 -1.75555 15.8564 -10.7422 8.97064 172.269 -5.19382 89.8383 -12.5571 -1.0785 0.739373 70.1507 -6.06744 2.04114 22.7829 1.44859 4.20356 0.266013 7.60869 -90.1644 11.6572 0.452115 -0.374736 -0.013706 0.435182 -0.39428 -22.5493 0.543835 -0.221536 -2.53667 0.543834 -0.221538 91.4952 -28.2872 -104.381 43.4082 -22.3843 -7.7398 -14.376 -17.3066 -25.5107 -7.87278 -0.14817 -3.18899 -88.6569 -51.4289 81.0095 -21.7836 29.3765 -15.6515 6.65495 -3.88429 -10.418 -0.640987 -0.0712396 -3.0978 6.12962 -1.26026 -2.28223 -6.75705 -0.867428 2.2997 
9.67171 100.96 22.4279 -152.835 -82.8666 -153.455 -174.044 -3.19667 88.5601 -12.98 6.37605 -0.185629 71.7234 6.16503 -1.72947 15.6032 -10.8815 8.96225 172.434 -5.0721 89.9093 -12.7401 -0.625668 0.568162 70.1843 -5.95766 2.44763 22.8932 1.31811 4.48259 0.271421 7.62551 -90.1796 11.6236 0.455828 -0.405174 -0.0473344 0.437542 -0.424858 -22.5829 0.556518 -0.249454 -2.57025 0.55652 -0.249457 91.531 -28.2088 -104.335 43.222 -22.1779 -7.72986 -14.5098 -17.24 -25.7657 -8.29935 -0.188132 -2.69771 -88.7819 -51.7712 80.8896 -20.7952 30.6068 -15.6031 6.14925 -5.21997 -11.1852 -0.187827 -0.0583779 -2.68543 6.26732 -1.32623 -2.01167 -6.90738 -0.98034 2.15257 
9.6606 100.954 22.3382 -154.495 -83.0031 -155.166 -174.14 -3.10836 88.5023 -12.947 6.36603 -0.109146 71.6702 6.10514 -1.96886 15.5667 -10.8532 8.88099 172.329 -4.9874 89.8474 -12.7466 -0.50307 0.689098 70.1124 -5.92466 2.39837 22.9232 1.31681 4.44574 0.242424 7.61239 -90.1501 11.6497 0.411874 -0.342017 -0.021249 0.396418 -0.359826 -22.5568 0.495615 -0.202414 -2.54413 0.495613 -0.202434 91.4877 -28.3991 -104.356 43.3654 -22.1731 -7.6355 -14.3243 -16.9673 -25.6982 -9.64742 -0.0949648 -4.21721 -88.6563 -51.2268 80.9725 -21.7822 29.6471 -15.5368 6.54389 -4.22873 -10.7098 -0.838041 -0.0724035 -3.08045 6.08408 -1.40568 -2.58236 -6.8101 -0.96249 2.55873 
9.65866 100.968 22.3345 -153.43 -83.0736 -154.034 -174.061 -2.95066 88.5883 -13.0289 6.47831 -0.177555 71.6275 6.04947 -1.85214 15.5329 -10.9472 9.00491 172.412 -4.95958 89.9392 -12.5943 -0.658285 0.674935 70.0643 -5.96155 2.23093 22.6656 1.40995 4.49093 0.251128 7.61285 -90.1759 11.6488 0.417104 -0.39399 -0.022106 0.399359 -0.411973 -22.5576 0.516227 -0.250414 -2.54493 0.516228 -0.250424 91.5186 -28.2289 -104.354 43.275 -22.0447 -7.68835 -14.5597 -17.2678 -25.8807 -9.34554 -0.142535 -3.5489 -88.7269 -51.7049 80.958 -21.071 30.3718 -15.5795 6.14782 -5.15635 -11.1223 -1.12444 -0.0749942 -3.14242 6.28538 -1.32468 -2.11171 -6.89324 -0.962643 2.2726 
9.66432 100.982 22.2949 -154.888 -83.0279 -155.636 -174.161 -3.10342 88.4344 -12.903 6.35753 -0.131553 71.5246 5.95229 -2.22076 15.8664 -10.9481 9.32198 172.344 -4.90272 89.8056 -12.8474 -0.616913 0.634608 70.1457 -5.95269 2.20474 22.7619 1.37593 4.47137 0.238729 7.63028 -90.1607 11.6139 0.399623 -0.361685 -0.057011 0.383319 -0.378919 -22.5925 0.489837 -0.224856 -2.57983 0.489846 -0.224855 91.557 -28.2475 -104.268 43.2269 -21.8828 -7.75536 -14.4821 -17.1513 -25.8729 -10.6663 -0.125412 -3.98989 -88.8311 -51.7227 80.8081 -21.0899 29.8505 -15.672 6.45737 -4.36191 -10.6629 -0.349775 -0.0587957 -2.56291 6.23127 -1.40026 -2.18574 -6.81909 -1.02196 2.26883 
9.66724 100.954 22.3083 -152.023 -82.9076 -152.57 -173.968 -3.02445 88.6682 -13.0389 6.31524 -0.242244 71.7209 6.09696 -1.92027 15.5989 -11.3069 9.65933 172.396 -4.99791 89.9507 -12.614 -0.676799 0.692325 70.1425 -6.00195 2.42733 22.615 1.41692 4.5369 0.287828 7.62605 -90.1729 11.6225 0.491582 -0.395527 -0.0483971 0.473699 -0.416781 -22.5841 0.587724 -0.229497 -2.57146 0.58773 -0.229488 91.571 -28.2327 -104.245 43.3836 -22.1489 -7.71692 -14.344 -16.9643 -25.6831 -8.89592 -0.170059 -3.12003 -88.7667 -51.3865 80.8396 -21.5521 29.6427 -15.6863 6.57531 -3.96531 -10.6995 -0.064918 -0.0611809 -2.91271 6.23628 -1.45468 -2.38292 -6.84596 -1.04271 2.43452 
9.70588 100.98 22.24 -154.595 -82.9453 -155.322 -174.222 -3.17083 88.3875 -12.7833 6.29619 -0.0644646 71.4544 5.97617 -1.87583 15.5657 -10.6707 8.57811 172.179 -4.90467 89.6982 -12.797 -1.26964 0.777113 69.9121 -5.91973 1.71729 23.1344 1.2334 4.43166 0.243315 7.63795 -90.165 11.5986 0.406754 -0.370902 -0.0723791 0.390039 -0.388448 -22.6078 0.499417 -0.231504 -2.5952 0.499418 -0.231512 91.489 -28.1758 -104.433 43.3377 -22.0369 -7.63545 -14.3388 -16.9356 -25.7604 -10.0169 -0.10605 -4.14352 -88.8619 -51.8338 80.7838 -20.9404 30.3337 -15.5635 6.14576 -5.0834 -11.1729 -0.478166 -0.0738956 -3.37621 6.12296 -1.40588 -2.02419 -6.71403 -1.05447 2.12458 
